<!-- Generated by IcoMoon.io -->
<svg version="1.1" xmlns="http://www.w3.org/2000/svg" width="1024" height="1024" viewBox="0 0 1024 1024">
<g id="icomoon-ignore">
</g>
<path fill="#000" d="M551.941 639.5c-4.888-8.995-7.762-19.697-7.762-31.069 0-14.083 4.408-27.138 11.918-37.858l-0.141 0.212c25.19-36.401 60.705-103.074 59.439-188.951 0 0 0-56.203-40.47-118.445-26.308-40.177-65.833-69.827-112.293-82.954l-1.396-0.337c-56.908-15.624-143.165-21.121-223.942 45.823 0 0-99.458 79.892-79.91 231.917l-52.116 96.456c-1.744 3.174-2.77 6.955-2.77 10.977 0 12.769 10.347 23.12 23.114 23.128h45.408l29.349 117.414c4.98 19.382 22.295 33.475 42.904 33.475 4.997 0 9.8-0.828 14.279-2.355l-0.312 0.093 104.684-51.139c2.355-1.284 5.158-2.038 8.137-2.038 9.534 0 17.264 7.729 17.264 17.264 0 6.555-3.654 12.257-9.036 15.181l-0.090 0.045-34.846 18.626c-5.301 2.876-8.838 8.4-8.838 14.75 0 1.877 0.31 3.683 0.88 5.368l-0.035-0.118 27.631 83.49c2.835 9.037 11.134 15.478 20.937 15.478 4.669 0 8.998-1.461 12.552-3.952l-0.070 0.046 162.622-112.694c11.791-8.274 19.403-21.808 19.403-37.12 0-7.786-1.969-15.113-5.435-21.509l0.119 0.238z"></path>
<path fill="#000" d="M767.529 583.026h82.134c5.144 0 9.313 4.169 9.313 9.313v67.125c0 5.144-4.169 9.313-9.313 9.313h-82.134c-5.144 0-9.313-4.169-9.313-9.313v-67.125c0-5.144 4.169-9.313 9.313-9.313z"></path>
<path fill="#000" d="M767.529 710.585h82.134c5.144 0 9.313 4.169 9.313 9.313v24.25c0 5.144-4.169 9.313-9.313 9.313h-82.134c-5.144 0-9.313-4.169-9.313-9.313v-24.25c0-5.144 4.169-9.313 9.313-9.313z"></path>
<path fill="#000" d="M800.567 235.323l-103.074 121.682c-1.11 1.328-1.785 3.054-1.785 4.937 0 4.25 3.434 7.698 7.677 7.722h54.849v162.224c0 5.144 4.169 9.313 9.313 9.313v0h82.134c0.006 0 0.011 0 0.018 0 5.133 0 9.295-4.161 9.295-9.295 0-0.007 0-0.012 0-0.019v0.001-162.206h54.828c4.246-0.024 7.68-3.472 7.68-7.722 0-1.883-0.674-3.609-1.795-4.949l0.010 0.012-103.074-121.682c-1.943-2.293-4.826-3.74-8.046-3.74-3.212 0-6.087 1.439-8.018 3.707l-0.012 0.015z"></path>
</svg>
